<?xml version="1.0" encoding="iso-8859-1"?>
<!-- Generator: Adobe Illustrator 19.0.0, SVG Export Plug-In . SVG Version: 6.00 Build 0)  -->
<svg version="1.1" id="Layer_1" xmlns="http://www.w3.org/2000/svg" xmlns:xlink="http://www.w3.org/1999/xlink" x="0px" y="0px"
	 viewBox="0 0 512 512" style="enable-background:new 0 0 512 512;" xml:space="preserve">
<polygon style="fill:#AFB6BB;" points="477.691,192.66 477.691,382.68 451.299,382.68 60.701,382.68 34.309,382.68 34.309,192.66 
	60.701,192.66 451.299,192.66 "/>
<polygon style="fill:#36C63F;" points="450.982,81.814 345.732,81.814 345.732,7.918 "/>
<g>
	<rect x="60.701" y="382.68" style="fill:#595E62;" width="390.598" height="121.402"/>
	<polygon style="fill:#595E62;" points="451.299,82.026 451.299,192.66 60.701,192.66 60.701,7.918 345.732,7.918 345.732,81.814 
		450.982,81.814 	"/>
</g>
<g>
	<rect x="60.701" y="382.68" style="fill:#43474B;" width="195.299" height="121.402"/>
	<rect x="60.701" y="7.918" style="fill:#43474B;" width="195.299" height="184.742"/>
</g>
<polygon style="fill:#A0A7AB;" points="477.691,192.66 451.299,192.66 60.701,192.66 34.309,192.66 34.309,292.948 477.691,292.948 
	"/>
<g>
	<rect x="113.485" y="432.825" style="fill:#FFFFFF;" width="285.031" height="15.835"/>
	<rect x="435.464" y="216.412" style="fill:#FFFFFF;" width="21.113" height="15.835"/>
	<rect x="435.464" y="343.093" style="fill:#FFFFFF;" width="21.113" height="15.835"/>
	<rect x="55.423" y="343.093" style="fill:#FFFFFF;" width="21.113" height="15.835"/>
	<rect x="55.423" y="216.412" style="fill:#FFFFFF;" width="21.113" height="15.835"/>
</g>
<path d="M485.608,184.742h-26.392V77.791L348.234,0H52.784v184.742H26.392v205.856h26.392V512h406.433V390.598h26.392V184.742z
	 M353.65,23.151l72.277,50.746H353.65V23.151z M68.619,15.835h269.196v73.897h105.567v95.01H68.619V15.835z M443.381,496.165H68.619
	V390.598h374.763V496.165z M469.773,374.763H42.227V200.577h427.546V374.763z"/>
<path d="M361.567,348.371c49.571,0,50.144-44.417,50.144-44.866v-23.753h-50.144v15.835h34.309v7.918
	c0,0.071-0.115,7.336-4.235,14.546c-5.492,9.612-15.61,14.485-30.074,14.485c-28.006,0-34.309-9.772-34.309-13.196v-57.962
	c0.095-2.097,1.888-18.575,34.309-18.575c32.651,0,34.238,16.711,34.31,18.617l-0.001-0.143h15.835c0-0.96-0.196-9.621-7.014-18.143
	c-8.582-10.728-23.094-16.167-43.13-16.167c-20.037,0-34.549,5.439-43.13,16.167c-6.818,8.521-7.014,17.183-7.014,18.143v58.062
	C311.423,322.312,312.83,348.371,361.567,348.371z"/>
<path d="M221.691,295.588h60.701c8.571,0,13.196-6.799,13.196-13.196v-42.227c0-8.571-6.799-13.196-13.196-13.196h-63.34
	c-8.571,0-13.196,6.799-13.196,13.196V351.01h15.835V295.588z M221.691,242.804h58.062v36.948h-58.062V242.804z"/>
<path d="M145.155,348.371c24.74,0,44.866-20.126,44.866-44.866V224.33h-15.835v79.175c0,16.007-13.023,29.031-29.031,29.031
	s-29.031-13.024-29.031-29.031h-15.835C100.289,328.245,120.415,348.371,145.155,348.371z"/>
<g>
	<path style="fill:#FFFFFF;" d="M232.247,163.629H89.732v-95.01h27.602l5.278-31.67h76.755l5.278,31.67h27.603V163.629z
		 M105.567,147.794h110.845v-63.34H191.23l-5.278-31.67h-49.926l-5.278,31.67h-25.181V147.794z"/>
	<rect x="134.598" y="105.567" style="fill:#FFFFFF;" width="52.784" height="15.835"/>
</g>
<g>
</g>
<g>
</g>
<g>
</g>
<g>
</g>
<g>
</g>
<g>
</g>
<g>
</g>
<g>
</g>
<g>
</g>
<g>
</g>
<g>
</g>
<g>
</g>
<g>
</g>
<g>
</g>
<g>
</g>
</svg>
